<svg xmlns="http://www.w3.org/2000/svg" width="87.778" height="89.723" viewBox="0 0 87.778 89.723">
  <g id="Group_1992" data-name="Group 1992" transform="translate(-826.991 -248.622)">
    <g id="Group_1891" data-name="Group 1891" transform="translate(826.991 248.622)">
      <g id="_98c9a98757e78de9a83f0058ee7626e4_2_" data-name="98c9a98757e78de9a83f0058ee7626e4 (2)" transform="translate(0 0)">
        <path id="Path_2308" data-name="Path 2308" d="M97.2,53.841a3.221,3.221,0,0,0-.364-.38,29.649,29.649,0,0,0-19.814-8.686c9.325-.744,16.644-8.233,16.644-17.355C93.666,17.8,85.53,10,75.486,10s-18.18,7.8-18.18,17.42c0,9.228,7.5,16.781,16.967,17.38C59.489,45.609,47.5,57.448,45.74,72.572c-.016.1-.024.194-.032.291a2.273,2.273,0,0,0-.008.235,3.319,3.319,0,0,0,3.1,3.316,2.2,2.2,0,0,0,.235.008,2.273,2.273,0,0,0,.235-.008s26.656.008,33.635.008a2.711,2.711,0,0,0,2.208-2.167,18.913,18.913,0,0,1,11.1-17.137,1.846,1.846,0,0,0,.364-.162,2.1,2.1,0,0,0,1.084-1.836A2.14,2.14,0,0,0,97.2,53.841Z" transform="translate(-45.7 -10)" fill="#3abca7"/>
      </g>
    </g>
    <g id="add-button-inside-black-circle" transform="translate(871.769 295.345)">
      <g id="add-circle">
        <path id="Path_2349" data-name="Path 2349" d="M21.5,0A21.5,21.5,0,1,0,43,21.5,21.563,21.563,0,0,0,21.5,0ZM32.25,23.65h-8.6v8.6h-4.3v-8.6h-8.6v-4.3h8.6v-8.6h4.3v8.6h8.6Z" fill="#556080"/>
      </g>
    </g>
  </g>
</svg>
