<svg xmlns="http://www.w3.org/2000/svg" width="80.303" height="80.665" viewBox="0 0 80.303 80.665"><defs><style>.a{fill:#3abca7;}.b{fill:#556080;}</style></defs><g transform="translate(-1.146)"><path class="a" d="M72.177,40.332a31.149,31.149,0,0,0-.322-4.461l9.594-6.659L71,11.12,60.438,16.1a30.622,30.622,0,0,0-7.725-4.468L51.743,0H30.852l-.969,11.632A30.625,30.625,0,0,0,22.157,16.1L11.592,11.12,1.146,29.212l9.594,6.659a31.072,31.072,0,0,0,0,8.922L1.146,51.452,11.592,69.545l10.565-4.98a30.545,30.545,0,0,0,8.506,4.763V58.938a21.433,21.433,0,0,1,3.995-38.981l3.1-1.008V34.47L41.3,37.306l3.545-2.836V18.949l3.1,1.008a21.431,21.431,0,0,1,3.995,38.981v10.39a30.541,30.541,0,0,0,8.506-4.763L71,69.545,81.449,51.452l-9.594-6.659a31.123,31.123,0,0,0,.322-4.461Z"/><path class="b" d="M172.608,194.071l1.336-.645a16.711,16.711,0,0,0,1.027-29.568v10.926L166.7,181.4l-8.271-6.617V163.858a16.711,16.711,0,0,0,1.027,29.568l1.336.645v24.636h11.816Z" transform="translate(-125.402 -138.042)"/></g></svg>