<svg xmlns="http://www.w3.org/2000/svg" width="16" height="16" viewBox="0 0 16 16"><defs><style>.a{fill:#555;}</style></defs><path class="a" d="M12.043,1h-.7A.348.348,0,0,0,11,1.348V3.783a.348.348,0,0,0,.348.348h.7a.348.348,0,0,0,.348-.348V1.348A.348.348,0,0,0,12.043,1Z" transform="translate(-7.522 -1)"/><path class="a" d="M34.043,4.13h-.7A.348.348,0,0,1,33,3.783V1.348A.348.348,0,0,1,33.348,1h.7a.348.348,0,0,1,.348.348V3.783A.348.348,0,0,1,34.043,4.13Z" transform="translate(-21.87 -1)"/><path class="a" d="M16.3,5H14.217V7.087a.348.348,0,0,1-.348.348H11.783a.348.348,0,0,1-.348-.348V5H6.565V7.087a.348.348,0,0,1-.348.348H4.13a.348.348,0,0,1-.348-.348V5H1.7a.7.7,0,0,0-.7.7V18.913a.7.7,0,0,0,.7.7H16.3a.7.7,0,0,0,.7-.7V5.7A.7.7,0,0,0,16.3,5Zm-.348,13.913H2.043a.348.348,0,0,1-.348-.348V9.174a.348.348,0,0,1,.348-.348H15.957a.348.348,0,0,1,.348.348v9.391A.348.348,0,0,1,15.957,18.913Z" transform="translate(-1 -3.609)"/></svg>