<svg xmlns="http://www.w3.org/2000/svg" width="86.535" height="90.276" viewBox="0 0 86.535 90.276">
  <g id="Group_2630" data-name="Group 2630" transform="translate(12639 -2019)">
    <path id="Path_2474" data-name="Path 2474" d="M13.08,22.2H70.555a3.4,3.4,0,0,1,3.477,3.089V51.524H67.476V28.766H25.814l16.976,9.258a2.574,2.574,0,0,1,1.54,2.7V90.483H67.476V72.742h6.556V93.572a3.045,3.045,0,0,1-3.089,3.089H44.321V109a3.258,3.258,0,0,1-1.54,2.7,2.116,2.116,0,0,1-1.927.775,2.291,2.291,0,0,1-1.54-.387l-27-15.049A3.366,3.366,0,0,1,10,93.95V25.289A3.306,3.306,0,0,1,13.08,22.2Z" transform="translate(-12649 1996.8)" fill="#3abca7"/>
    <path id="Union_50" data-name="Union 50" d="M19.915,21.353V15.2q-.12.007-.241.007H3.987a3.987,3.987,0,1,1,0-7.974H19.674q.122,0,.241.007V1.082A1,1,0,0,1,21.453.238L37.324,10.375a1,1,0,0,1,0,1.686L21.453,22.2a.989.989,0,0,1-.535.159A1,1,0,0,1,19.915,21.353Z" transform="translate(-12590.251 2047.708)" fill="#556080"/>
  </g>
</svg>
