<svg xmlns="http://www.w3.org/2000/svg" width="88.006" height="89.374" viewBox="0 0 88.006 89.374">
  <g id="Group_2023" data-name="Group 2023" transform="translate(-281.991 -453.622)">
    <g id="Group_1891" data-name="Group 1891" transform="translate(281.991 453.622)">
      <g id="_98c9a98757e78de9a83f0058ee7626e4_2_" data-name="98c9a98757e78de9a83f0058ee7626e4 (2)" transform="translate(0 0)">
        <path id="Path_2308" data-name="Path 2308" d="M97.2,53.841a3.221,3.221,0,0,0-.364-.38,29.649,29.649,0,0,0-19.814-8.686c9.325-.744,16.644-8.233,16.644-17.355C93.666,17.8,85.53,10,75.486,10s-18.18,7.8-18.18,17.42c0,9.228,7.5,16.781,16.967,17.38C59.489,45.609,47.5,57.448,45.74,72.572c-.016.1-.024.194-.032.291a2.273,2.273,0,0,0-.008.235,3.319,3.319,0,0,0,3.1,3.316,2.2,2.2,0,0,0,.235.008,2.273,2.273,0,0,0,.235-.008s26.656.008,33.635.008a2.711,2.711,0,0,0,2.208-2.167,18.913,18.913,0,0,1,11.1-17.137,1.846,1.846,0,0,0,.364-.162,2.1,2.1,0,0,0,1.084-1.836A2.14,2.14,0,0,0,97.2,53.841Z" transform="translate(-45.7 -10)" fill="#3abca7"/>
      </g>
    </g>
    <path id="Subtraction_15" data-name="Subtraction 15" d="M14476.5,731a21.5,21.5,0,1,1,15.2-6.3A21.354,21.354,0,0,1,14476.5,731Zm-9.237-16.508h0c.19,3.366,2.506,5.773,6.353,6.6v3.74h5.17v-3.708c3.834-.737,6.033-2.97,6.033-6.127,0-4.8-4.1-6.525-8.1-7.575-3.769-.978-5.17-1.98-5.17-3.7,0-1.941,1.826-3.195,4.653-3.195,2.783,0,4.192,1.183,4.309,3.617h3.81a6.822,6.822,0,0,0-5.531-6.564v-3.777h-5.17v3.722c-3.722.818-6.033,3.2-6.033,6.222a5.6,5.6,0,0,0,2.251,4.62,14.973,14.973,0,0,0,5.849,2.5c4.557,1.09,5.171,2.716,5.171,4.162a2.646,2.646,0,0,1-.9,1.979,5.5,5.5,0,0,1-3.759,1.1c-3.979,0-4.988-1.969-5.134-3.62Z" transform="translate(-14128 -188)" fill="#556080"/>
  </g>
</svg>
