<svg id="Component_119_1" data-name="Component 119 – 1" xmlns="http://www.w3.org/2000/svg" width="14.988" height="15" viewBox="0 0 14.988 15">
  <path id="Path_309" data-name="Path 309" d="M15.639,3.377,13.548,1.286a1.536,1.536,0,0,0-2.091,0L1.7,11.045c-.05.05-.1.1-.1.149v.149l-.5,3.983a.565.565,0,0,0,.149.4.3.3,0,0,0,.3.149H1.6l3.983-.5h.149c.05,0,.1-.05.149-.1l9.759-9.759A1.5,1.5,0,0,0,15.639,3.377ZM13,6.713,10.212,3.925l.8-.8L13.8,5.916ZM5.532,14.182,4.486,13.136l6.772-6.772L12.3,7.41Zm3.983-9.56,1.046,1.046L3.789,12.439,2.743,11.394Z" transform="translate(-1.1 -0.875)" fill="#00a9ee"/>
</svg>
