<svg xmlns="http://www.w3.org/2000/svg" width="39.228" height="46.147" viewBox="0 0 39.228 46.147"><defs><style>.a{fill:#00a9ee;}</style></defs><g transform="translate(0 0)"><g transform="translate(19.997)"><path class="a" d="M272.315,10.936l-10.7-10.7A.8.8,0,0,0,260.246.8V11.466a.84.84,0,0,0,.84.84h10.661A.8.8,0,0,0,272.315,10.936Z" transform="translate(-260.246 0)"/></g><g transform="translate(0 0)"><path class="a" d="M70.686,20.767V14.614a.769.769,0,0,0-.769-.769H57.611a.769.769,0,0,1-.769-.769V.77A.769.769,0,0,0,56.073,0H39.152a.769.769,0,0,0-.769.769v42.3a.769.769,0,0,0,.769.769H55.113a.77.77,0,0,0,.608-1.24,13.091,13.091,0,0,1,6.594-20.531,13.328,13.328,0,0,1,7.389-.023.771.771,0,0,0,.952-.526A4.246,4.246,0,0,0,70.686,20.767Z" transform="translate(-38.383 -0.001)"/></g><g transform="translate(39.228 46.147) rotate(180)"><g transform="translate(0)"><path class="a" d="M22.978,10.033A11.539,11.539,0,1,0,10.034,22.978,11.572,11.572,0,0,0,22.978,10.033Zm-7.821,4.355L12.08,17.465a.769.769,0,0,1-1.088,0L7.916,14.388A.769.769,0,1,1,9,13.3l1.107,1.107a.385.385,0,0,0,.657-.272V6.153a.769.769,0,1,1,1.538,0v7.983a.385.385,0,0,0,.657.272L14.069,13.3a.769.769,0,0,1,1.088,1.087Z"/></g></g></g></svg>