<svg xmlns="http://www.w3.org/2000/svg" width="25.048" height="29.467" viewBox="0 0 25.048 29.467"><defs><style>.a{fill:#00a9ee;}</style></defs><g transform="translate(0 0)"><g transform="translate(12.769)"><path class="a" d="M267.953,6.983,261.121.152a.513.513,0,0,0-.875.362V7.322a.536.536,0,0,0,.536.536h6.808A.513.513,0,0,0,267.953,6.983Z" transform="translate(-260.246 0)"/></g><g transform="translate(0 0)"><path class="a" d="M59.01,13.261V9.332a.491.491,0,0,0-.491-.491H50.661a.491.491,0,0,1-.491-.491V.492A.491.491,0,0,0,49.679,0h-10.8a.491.491,0,0,0-.491.491V27.5a.491.491,0,0,0,.491.491H49.066a.492.492,0,0,0,.388-.792,8.359,8.359,0,0,1,4.211-13.11,8.51,8.51,0,0,1,4.718-.015.492.492,0,0,0,.608-.336A2.711,2.711,0,0,0,59.01,13.261Z" transform="translate(-38.383 -0.001)"/></g><g transform="translate(25.048 29.467) rotate(180)"><g transform="translate(0)"><path class="a" d="M14.671,8.327A7.368,7.368,0,1,1,6.406.061,7.389,7.389,0,0,1,14.671,8.327ZM9.678,5.546,7.713,3.581a.491.491,0,0,0-.694,0L5.054,5.546a.491.491,0,0,0,.694.694l.707-.707a.246.246,0,0,1,.419.174v5.1a.491.491,0,1,0,.982,0v-5.1a.246.246,0,0,1,.419-.174l.707.707a.491.491,0,0,0,.695-.694Z"/></g></g></g></svg>