<svg xmlns="http://www.w3.org/2000/svg" width="16" height="16" viewBox="0 0 16 16"><defs><style>.a{opacity:0.8;}.b{fill:#00a9ee;}</style></defs><g class="a" transform="translate(-4.546 -4)"><path class="b" d="M18.653,12.78a5.314,5.314,0,0,0,0-1.56L20.392,9.9a.392.392,0,0,0,.1-.512L18.846,6.612a.412.412,0,0,0-.5-.172l-2.047.8a6.282,6.282,0,0,0-1.39-.788L14.6,4.336A.42.42,0,0,0,14.188,4H10.9a.412.412,0,0,0-.407.336l-.308,2.12a6.126,6.126,0,0,0-1.39.788l-2.047-.8a.417.417,0,0,0-.5.172L4.6,9.384a.393.393,0,0,0,.1.512L6.435,11.22a5.314,5.314,0,0,0,0,1.56L4.7,14.1a.392.392,0,0,0-.1.512l1.644,2.772a.412.412,0,0,0,.5.172l2.047-.8a6.282,6.282,0,0,0,1.39.788l.308,2.12A.412.412,0,0,0,10.9,20h3.289a.412.412,0,0,0,.407-.336l.308-2.12a6.126,6.126,0,0,0,1.39-.788l2.047.8a.417.417,0,0,0,.5-.172l1.644-2.772a.393.393,0,0,0-.1-.512ZM12.544,14.8A2.8,2.8,0,1,1,15.422,12,2.838,2.838,0,0,1,12.544,14.8Z"/></g></svg>