<svg xmlns="http://www.w3.org/2000/svg" width="15.047" height="15.049" viewBox="0 0 15.047 15.049">
  <g id="link_1_" data-name="link (1)" transform="translate(-0.039 0)">
    <g id="Group_1132" data-name="Group 1132" transform="translate(0.039 4.838)">
      <g id="Group_1131" data-name="Group 1131" transform="translate(0)">
        <path id="Path_2188" data-name="Path 2188" d="M9.22,165.642a3.414,3.414,0,0,0-.589-.474,3.511,3.511,0,0,0-4.376.474l-3.19,3.192A3.511,3.511,0,0,0,6.028,173.8l2.633-2.633a.251.251,0,0,0-.178-.429h-.1a4.221,4.221,0,0,1-1.6-.311.251.251,0,0,0-.273.055l-1.893,1.9a1.505,1.505,0,0,1-2.129-2.129l3.2-3.2a1.5,1.5,0,0,1,2.127,0,1.028,1.028,0,0,0,1.409,0,.993.993,0,0,0,0-1.409Z" transform="translate(-0.039 -164.614)" fill="#7d7d7d"/>
      </g>
    </g>
    <g id="Group_1134" data-name="Group 1134" transform="translate(5.607 0)">
      <g id="Group_1133" data-name="Group 1133" transform="translate(0 0)">
        <path id="Path_2189" data-name="Path 2189" d="M197.952,1.029a3.511,3.511,0,0,0-4.965,0l-2.631,2.628a.252.252,0,0,0,.183.429h.093a4.213,4.213,0,0,1,1.6.313.251.251,0,0,0,.273-.055L194.4,2.458a1.506,1.506,0,1,1,2.129,2.129l-2.352,2.35-.02.023-.823.818a1.5,1.5,0,0,1-2.127,0,1.028,1.028,0,0,0-1.409,0,1,1,0,0,0,0,1.414,3.481,3.481,0,0,0,1,.7c.053.025.105.045.158.068s.108.04.16.06.108.038.161.053l.148.04c.1.025.2.045.3.063a3.491,3.491,0,0,0,.374.035h.191l.15-.018c.055,0,.113-.015.178-.015h.085l.173-.025.08-.015.145-.03h.028a3.511,3.511,0,0,0,1.628-.923l3.192-3.192A3.511,3.511,0,0,0,197.952,1.029Z" transform="translate(-189.502 0)" fill="#7d7d7d"/>
      </g>
    </g>
  </g>
</svg>
