<svg xmlns="http://www.w3.org/2000/svg" width="19.284" height="23.56" viewBox="0 0 19.284 23.56"><defs><style>.a{fill:#fff;}</style></defs><g transform="translate(0 0)"><path class="a" d="M7.924,7.391a1.57,1.57,0,0,0,.354.772c.348,2.424,2.524,4.489,4.271,4.4,2.223-.109,3.8-2.5,4.152-4.4a1.937,1.937,0,0,0,.372-.853,1.987,1.987,0,0,0-.065-1.439c-.015-.018-.115-.11-.133-.125a3.721,3.721,0,0,0-.568-3.957A6.363,6.363,0,0,0,13.605.3,4.174,4.174,0,0,0,8.027,2.808a4.37,4.37,0,0,0,.024,2.937.518.518,0,0,0-.131.125C7.657,6.217,7.828,6.955,7.924,7.391Z" transform="translate(-2.846 0)"/><path class="a" d="M21.629,21.915C21.553,20.246,21.458,17.6,20,15.44a3.23,3.23,0,0,0-1.4-.943,14.253,14.253,0,0,1-3.125-1.356l-.45.308.05,2.925-2.7,7.213a.4.4,0,0,1-.756,0l-2.7-7.213s.05-2.916.049-2.925c.006.025-.451-.308-.451-.308A14.215,14.215,0,0,1,5.389,14.5a3.23,3.23,0,0,0-1.4.943C2.532,17.6,2.436,20.246,2.359,21.915c-.053,1.153.189,1.583.493,1.705,3.769,1.513,14.513,1.513,18.283,0C21.441,23.5,21.681,23.067,21.629,21.915Z" transform="translate(-2.352 -1.195)"/><path class="a" d="M12.935,14.826l-.122,0a3.613,3.613,0,0,1-1.178-.211l1.071,1.639-.961.927.989,6.006a.106.106,0,0,0,.105.089.107.107,0,0,0,.105-.089l.989-6.006-.962-.927,1.055-1.615A4.525,4.525,0,0,1,12.935,14.826Z" transform="translate(-3.196 -1.329)"/></g></svg>