<svg xmlns="http://www.w3.org/2000/svg" width="78.975" height="90.553" viewBox="0 0 78.975 90.553">
  <g id="file_3_" data-name="file (3)" transform="translate(-38.387 0)">
    <g id="Group_2248" data-name="Group 2248" transform="translate(77.626 0)">
      <g id="Group_2247" data-name="Group 2247" transform="translate(0 0)">
        <path id="Path_2424" data-name="Path 2424" d="M283.932,21.458,262.939.465a1.575,1.575,0,0,0-2.689,1.114V22.5a1.648,1.648,0,0,0,1.648,1.648h20.92A1.575,1.575,0,0,0,283.932,21.458Z" transform="translate(-260.25 0)" fill="#3abca7"/>
      </g>
    </g>
    <g id="Group_2250" data-name="Group 2250" transform="translate(38.387 0)">
      <g id="Group_2249" data-name="Group 2249" transform="translate(0)">
        <path id="Path_2425" data-name="Path 2425" d="M100.312,39.81v-11.8a1.475,1.475,0,0,0-1.474-1.474H75.247a1.475,1.475,0,0,1-1.474-1.474V1.475A1.475,1.475,0,0,0,72.3,0H39.861a1.475,1.475,0,0,0-1.474,1.474V82.568a1.475,1.475,0,0,0,1.474,1.474h30.6a1.476,1.476,0,0,0,1.166-2.377A25.1,25.1,0,0,1,84.266,42.309a25.55,25.55,0,0,1,14.165-.044,1.478,1.478,0,0,0,1.825-1.009A8.157,8.157,0,0,0,100.312,39.81Z" transform="translate(-38.387 -0.001)" fill="#3abca7"/>
      </g>
    </g>
    <g id="Group_2252" data-name="Group 2252" transform="translate(83.168 63.146)">
      <g id="Group_2251" data-name="Group 2251">
        <path id="Path_2426" data-name="Path 2426" d="M303.192,361.385a17.8,17.8,0,0,0-5.116-4.318.307.307,0,0,0-.447.32,5.759,5.759,0,0,1,.238,1.4,5.969,5.969,0,0,1-8.133,5.611,5.876,5.876,0,0,1-2.7-2.123,5.61,5.61,0,0,1-1.064-4.835.306.306,0,0,0-.439-.338,17.858,17.858,0,0,0-5.081,4.312.793.793,0,0,0-.036.943c3.148,4.493,7.1,6.962,11.24,6.994h.083c4.177,0,8.209-2.469,11.485-7A.8.8,0,0,0,303.192,361.385Z" transform="translate(-280.275 -357.031)" fill="#556080"/>
      </g>
    </g>
    <g id="Group_2254" data-name="Group 2254" transform="translate(91.706 61.879)">
      <g id="Group_2253" data-name="Group 2253">
        <circle id="Ellipse_79" data-name="Ellipse 79" cx="3.012" cy="3.012" r="3.012" fill="#556080"/>
      </g>
    </g>
    <g id="Group_2256" data-name="Group 2256" transform="translate(72.086 45.278)">
      <g id="Group_2255" data-name="Group 2255">
        <path id="Path_2427" data-name="Path 2427" d="M240.256,256.005a22.638,22.638,0,1,0,22.638,22.638A22.664,22.664,0,0,0,240.256,256.005ZM255.1,279.473c-4,6.281-9.3,9.734-14.936,9.734h-.109c-5.611-.044-10.815-3.507-14.654-9.754a1.556,1.556,0,0,1,.057-1.7c3.94-5.507,9.2-8.54,14.8-8.54s10.86,3.032,14.8,8.54A1.557,1.557,0,0,1,255.1,279.473Z" transform="translate(-217.618 -256.005)" fill="#556080"/>
      </g>
    </g>
    <path id="Path_2431" data-name="Path 2431" d="M45.6,15H27.032c-.57,0-1.032-.67-1.032-1.5s.461-1.5,1.032-1.5H45.6c.57,0,1.032.67,1.032,1.5S46.17,15,45.6,15Z" transform="translate(20.128 0.686)" fill="#fff"/>
    <path id="Path_2432" data-name="Path 2432" d="M45.6,29H27.032C26.461,29,26,28.329,26,27.5s.461-1.5,1.032-1.5H45.6c.57,0,1.032.671,1.032,1.5S46.17,29,45.6,29Z" transform="translate(20.128 -3.914)" fill="#fff"/>
    <path id="Path_2433" data-name="Path 2433" d="M66.517,29h-39.3a1.534,1.534,0,0,1,0-3h39.3a1.534,1.534,0,0,1,0,3Z" transform="translate(20.128 5.086)" fill="#fff"/>
  </g>
</svg>
