<svg xmlns="http://www.w3.org/2000/svg" width="12.494" height="17.18" viewBox="0 0 12.494 17.18"><defs><style>.a{fill:#00a9ee;}</style></defs><g transform="translate(0 0)"><path class="a" d="M82.747,2.343V0L79.624,3.124l3.124,3.124V3.9A4.7,4.7,0,0,1,87.433,8.59a5.027,5.027,0,0,1-.547,2.187l1.171,1.171a6.981,6.981,0,0,0,.937-3.358A6.266,6.266,0,0,0,82.747,2.343Zm0,10.933A4.7,4.7,0,0,1,78.062,8.59,5.027,5.027,0,0,1,78.608,6.4L77.437,5.232A6.981,6.981,0,0,0,76.5,8.59a6.266,6.266,0,0,0,6.247,6.247V17.18l3.124-3.124-3.124-3.124Z" transform="translate(-76.5)"/></g></svg>