<svg id="noun_report_2041570" xmlns="http://www.w3.org/2000/svg" width="17.42" height="16.925" viewBox="0 0 17.42 16.925">
  <g id="noun_report_2041570-2" data-name="noun_report_2041570" transform="translate(-1.7 -7.385)">
    <g id="Group_2738" data-name="Group 2738" transform="translate(1.7 7.385)">
      <path id="Path_2491" data-name="Path 2491" d="M18.98,7.387l-3.8.344a.1.1,0,0,0-.056.179l.963.972-.209.239-.14.149-.726.807c-.279.314-.558.628-.824.942-.2.224-.391.448-.586.688-.461.553-.935,1.106-1.382,1.659l-.67.852a2.557,2.557,0,0,1-.181.224l-.237-.149L7.423,12.051l-.586-.359-.419.493-.53.613L1.7,17.687l.879.912L7.1,13.935h0L9.74,15.773l1.354.942.489.344.112.075.642-.6c.265-.239.516-.493.768-.747l.754-.762c.5-.508.991-1.046,1.48-1.57s.963-1.061,1.438-1.6l.712-.807.1-.1.251-.3.921.927a.1.1,0,0,0,.168-.075l.2-3.991C19.092,7.432,19.05,7.372,18.98,7.387Z" transform="translate(-1.7 -7.385)" fill="#fff"/>
      <path id="Path_2492" data-name="Path 2492" d="M8.1,78.071a.338.338,0,0,0,.344.344h2.422a.338.338,0,0,0,.344-.344V71L8.1,74.02Z" transform="translate(-7.143 -61.49)" fill="#fff"/>
      <path id="Path_2493" data-name="Path 2493" d="M37.1,59.883V68.12a.338.338,0,0,0,.344.344h2.422a.338.338,0,0,0,.344-.344V60.944L37.7,59.3Z" transform="translate(-32.229 -51.539)" fill="#fff"/>
      <path id="Path_2494" data-name="Path 2494" d="M67.181,70.819,66,70.057v6.4a.338.338,0,0,0,.344.344h2.422a.338.338,0,0,0,.344-.344V69.1c-.239.209-.478.434-.718.658Z" transform="translate(-57.152 -59.874)" fill="#fff"/>
      <path id="Path_2495" data-name="Path 2495" d="M96.33,41.869c-.478.493-.912.927-1.33,1.33v8.506a.338.338,0,0,0,.344.344h2.422a.338.338,0,0,0,.344-.344V40l-.239.254C97.392,40.762,96.869,41.316,96.33,41.869Z" transform="translate(-82.289 -35.124)" fill="#fff"/>
    </g>
  </g>
</svg>
