<svg xmlns="http://www.w3.org/2000/svg" width="80.634" height="80.664" viewBox="0 0 80.634 80.664"><defs><style>.a{fill:#3abca7;}.b{fill:#556080;}</style></defs><g transform="translate(-10.051 -9.884)"><path class="a" d="M58.742,43.893a27,27,0,0,1,10.565-2.139c.362,0,.724.016,1.086.016A27.231,27.231,0,0,0,71.686,27.3a20.862,20.862,0,0,0-24.15-17.09c-11.347,2.016-20.917,10.837-18.9,22.283a36.8,36.8,0,0,0,3.036,9.117l-20.6,29.721a6.809,6.809,0,0,0-.963,4.394l.9,5.085c-.848-4.9.239,1.761.9,1.744l6.788.091a6.356,6.356,0,0,0,3.67-2.46l8.146-12.738.082-.082,7.118.568L47.223,53.01c.033,0,.066.016.091.016a27.485,27.485,0,0,1,11.429-9.134ZM15.527,74.462l-1.012.428.107-1.1L34.353,45.136l1.185,1.1ZM45.519,21.75a9.769,9.769,0,0,1,13.7-2.444,10.018,10.018,0,0,1,2.427,13.857c-3.119,4.484-6.3,1.325-10.755-1.827S42.4,26.251,45.519,21.75Z" transform="translate(0 0)"/><path class="b" d="M485.641,464.2a21.641,21.641,0,1,0,21.641,21.641A21.636,21.636,0,0,0,485.641,464.2Zm12.507,30.519c0,3.225-6.188,3.966-12,3.966s-12.079-.741-12.079-3.966v-.9c0-2.378,4.287-4.789,7.924-6.1.271-.09,1.53-.79.823-2.633a11.635,11.635,0,0,1-3.168-7.784c0-4.5,2.979-6.871,6.476-6.871,3.481,0,6.492,2.362,6.492,6.871a11.738,11.738,0,0,1-3.168,7.768h.017c-.691,2.1.411,2.6.584,2.65,3.826,1.259,8.13,3.654,8.13,6.1l-.033.9Z" transform="translate(-416.596 -416.933)"/></g></svg>