<svg xmlns="http://www.w3.org/2000/svg" width="12.772" height="14.828" viewBox="0 0 12.772 14.828">
  <path id="Icon_awesome-save" data-name="Icon awesome-save" d="M12.371,5.492,9.98,2.715a1.28,1.28,0,0,0-.968-.465H1.368A1.491,1.491,0,0,0,0,3.839V15.489a1.491,1.491,0,0,0,1.368,1.589H11.4a1.491,1.491,0,0,0,1.368-1.589V6.615a1.727,1.727,0,0,0-.4-1.123ZM6.386,14.96a1.988,1.988,0,0,1-1.825-2.118,1.988,1.988,0,0,1,1.825-2.118,1.988,1.988,0,0,1,1.825,2.118A1.988,1.988,0,0,1,6.386,14.96ZM9.123,4.881V8.208a.373.373,0,0,1-.342.4H2.167a.373.373,0,0,1-.342-.4V4.765a.373.373,0,0,1,.342-.4H8.682a.32.32,0,0,1,.242.116l.1.115a.432.432,0,0,1,.1.281Z" transform="translate(0 -2.25)" fill="#12bd68"/>
</svg>
