<svg id="Component_111_22" data-name="Component 111 – 22" xmlns="http://www.w3.org/2000/svg" width="28" height="28" viewBox="0 0 28 28">
  <g id="Component_109_14" data-name="Component 109 – 14" opacity="0">
    <rect id="Rectangle_36" data-name="Rectangle 36" width="28" height="28" rx="4" fill="#00a9ee"/>
  </g>
  <g id="noun_Share_18965" transform="translate(-5 -13)">
    <g id="Group_2029" data-name="Group 2029" transform="translate(10 20)">
      <path id="Path_2380" data-name="Path 2380" d="M25.435,26.2V29.29l5.145-5.145L25.435,19v2.572c-7.872.051-7.717,7.717-7.717,7.717A8.357,8.357,0,0,1,25.435,26.2Zm-4.116-6.688H11.543c-1.266,0-1.543.36-1.543,1.543V33.406c0,1.281.308,1.543,1.543,1.543h14.92c1.24,0,1.543-.232,1.543-1.543V29.29L25.435,31.5v.88H12.572V22.087h6.174Z" transform="translate(-10 -19)" fill="#00a9ee" fill-rule="evenodd"/>
    </g>
  </g>
</svg>
