<svg xmlns="http://www.w3.org/2000/svg" width="20.876" height="20.876" viewBox="0 0 20.876 20.876"><defs><style>.a{fill:#fff;}</style></defs><g transform="translate(0)"><path class="a" d="M32.835,9.786A1.826,1.826,0,0,0,34.1,9.27l1.81.905a1.8,1.8,0,0,0-.022.222,1.835,1.835,0,1,0,3.67,0,1.813,1.813,0,0,0-.184-.786l2.456-2.456a1.813,1.813,0,0,0,.786.184A1.837,1.837,0,0,0,44.455,5.5a1.807,1.807,0,0,0-.092-.543l2.134-1.6a1.834,1.834,0,1,0-.819-1.526,1.807,1.807,0,0,0,.092.543l-2.134,1.6A1.827,1.827,0,0,0,40.97,6.291L38.514,8.747a1.8,1.8,0,0,0-2.056.332l-1.81-.905a1.8,1.8,0,0,0,.022-.222,1.835,1.835,0,1,0-1.835,1.835Zm0,0" transform="translate(-29.736 0)"/><path class="a" d="M20.265,163.537h-.652V150.612A.611.611,0,0,0,19,150H16.554a.611.611,0,0,0-.612.612v12.925H14.719v-9.256a.611.611,0,0,0-.612-.612H11.661a.611.611,0,0,0-.612.612v9.256H9.827v-4.363a.611.611,0,0,0-.612-.612H6.768a.611.611,0,0,0-.612.612v4.363H4.934v-6.809a.611.611,0,0,0-.612-.612H1.876a.611.611,0,0,0-.612.612v6.809H.612a.612.612,0,0,0,0,1.223H20.265a.612.612,0,1,0,0-1.223Zm0,0" transform="translate(0 -143.884)"/></g></svg>